<svg width="69" height="44" viewBox="0 0 69 44" fill="none" xmlns="http://www.w3.org/2000/svg">
<path fill-rule="evenodd" clip-rule="evenodd" d="M67.9494 42.975C67.4056 43.518 66.6685 43.8231 65.9 43.8231C65.1315 43.8231 64.3945 43.518 63.8507 42.975L45.6 24.7243L31.0304 39.2978C30.7432 39.5851 30.3987 39.8088 30.0194 39.9545C29.6401 40.1002 29.2345 40.1645 28.8287 40.1434C28.423 40.1223 28.0262 40.0161 27.6641 39.8318C27.302 39.6475 26.9827 39.3891 26.7268 39.0735C20.0102 30.788 14.9994 21.2553 11.9832 11.0247L5.89711 21.5691C5.51254 22.2357 4.87893 22.7222 4.13567 22.9216C3.3924 23.121 2.60035 23.017 1.93378 22.6324C1.2672 22.2479 0.780685 21.6143 0.581276 20.871C0.381859 20.1277 0.48587 19.3357 0.870438 18.6691L10.4404 2.09656C10.6307 1.76635 10.8842 1.47688 11.1864 1.24469C11.4886 1.01251 11.8336 0.842171 12.2017 0.743416C12.5698 0.644661 12.9537 0.619427 13.3316 0.669155C13.7094 0.718884 14.0738 0.842594 14.4038 1.03323L30.9802 10.6032C31.6467 10.9878 32.1333 11.6214 32.3327 12.3647C32.5321 13.1079 32.4281 13.9 32.0435 14.5666C31.6589 15.2331 31.0253 15.7196 30.2821 15.9191C29.5388 16.1185 28.7467 16.0145 28.0802 15.6299L17.6015 9.57856C20.0987 17.9621 24.0414 25.8449 29.2518 32.8714L43.5507 18.5724C44.0945 18.0294 44.8315 17.7243 45.6 17.7243C46.3685 17.7243 47.1056 18.0294 47.6494 18.5724L67.9494 38.8724C68.4924 39.4162 68.7975 40.1533 68.7975 40.9218C68.7975 41.6903 68.4924 42.4312 67.9494 42.975Z" fill="black"/>
</svg>
