<svg width="23" height="23" viewBox="0 0 23 23" fill="none" xmlns="http://www.w3.org/2000/svg">
<path fill-rule="evenodd" clip-rule="evenodd" d="M0.832131 22.2533C1.15088 22.5717 1.58296 22.7505 2.03347 22.7505C2.48397 22.7505 2.91605 22.5717 3.2348 22.2533L19.6001 5.88799V18.7853C19.6001 19.2362 19.7792 19.6686 20.0981 19.9874C20.4169 20.3062 20.8493 20.4853 21.3001 20.4853C21.751 20.4853 22.1834 20.3062 22.5022 19.9874C22.821 19.6686 23.0001 19.2362 23.0001 18.7853V1.78533C23.0001 1.33446 22.821 0.902057 22.5022 0.583245C22.1834 0.264434 21.751 0.0853271 21.3001 0.0853271H4.30013C3.84926 0.0853271 3.41686 0.264434 3.09805 0.583245C2.77924 0.902057 2.60013 1.33446 2.60013 1.78533C2.60013 2.2362 2.77924 2.6686 3.09805 2.98741C3.41686 3.30622 3.84926 3.48533 4.30013 3.48533H17.1975L0.832131 19.8507C0.513777 20.1694 0.334961 20.6015 0.334961 21.052C0.334961 21.5025 0.513777 21.9346 0.832131 22.2533Z" fill="#0C0C0C"/>
</svg>
