<svg width="29" height="31" viewBox="0 0 29 31" fill="none" xmlns="http://www.w3.org/2000/svg">
<path fill-rule="evenodd" clip-rule="evenodd" d="M27.3388 12.224C25.9903 13.6667 23.7801 14.7645 21.5339 15.2087C23.7801 15.653 25.9903 16.7508 27.3387 18.1935L28.8695 19.8313L26.6684 20.2564C24.7294 20.6308 22.2961 20.2199 20.2177 19.259C21.7737 20.9388 22.9166 23.126 23.1596 25.0857L23.4355 27.3105L21.4048 26.3608C19.6161 25.5241 17.8891 23.7613 16.7724 21.7622C17.0439 24.0358 16.6829 26.477 15.7275 28.2054L14.643 30.1675L13.5585 28.2054C12.6032 26.477 12.2421 24.0358 12.5137 21.7622C11.3971 23.7613 9.67006 25.524 7.88126 26.3608L5.85057 27.3105L6.12644 25.0857C6.36946 23.126 7.51231 20.9388 9.06843 19.259C6.99001 20.2199 4.55667 20.631 2.61773 20.2564L0.416504 19.8313L1.94744 18.1935C3.29596 16.7507 5.50617 15.653 7.75241 15.2087C5.5061 14.7644 3.29596 13.6667 1.94744 12.224L0.416504 10.5862L2.61773 10.161C4.55667 9.78659 6.99008 10.1976 9.06843 11.1585C7.51231 9.47871 6.36946 7.29147 6.12644 5.33173L5.85057 3.10684L7.88134 4.05676C9.67012 4.8934 11.3971 6.65623 12.5138 8.65529C12.2422 6.3817 12.6032 3.94043 13.5586 2.21209L14.6432 0.25L15.7277 2.21209C16.6831 3.94043 17.044 6.3817 16.7724 8.65529C17.8892 6.65623 19.6162 4.89348 21.405 4.05676L23.4358 3.10684L23.1598 5.33173C22.9169 7.29147 21.774 9.47871 20.2178 11.1585C22.2962 10.1976 24.7296 9.78652 26.6685 10.161L28.8698 10.5862L27.3388 12.224ZM11.8232 18.0054C13.3607 19.5429 15.8535 19.5429 17.3909 18.0054C18.9284 16.468 18.9284 13.9751 17.3909 12.4377C15.8535 10.9002 13.3607 10.9002 11.8232 12.4377C10.2857 13.9751 10.2857 16.468 11.8232 18.0054Z" fill="#E9E9E9"/>
</svg>
