<svg width="22" height="22" viewBox="0 0 22 22" fill="none" xmlns="http://www.w3.org/2000/svg">
<path fill-rule="evenodd" clip-rule="evenodd" d="M5.40953 0.5H0.0761909V5.83333C0.0761909 8.54928 2.1063 10.7911 4.73184 11.124C2.06949 11.4229 4.5016e-07 13.6817 2.33127e-07 16.4238L0 21.7572H5.33333C8.04928 21.7572 10.2911 19.727 10.624 17.1015C10.9229 19.7639 13.1817 21.8333 15.9238 21.8333H21.2572V16.5C21.2572 13.7841 19.227 11.5422 16.6015 11.2093C19.2639 10.9105 21.3333 8.65168 21.3333 5.90953V0.576191L16 0.57619C13.2841 0.57619 11.0422 2.6063 10.7093 5.23184C10.4105 2.56949 8.15168 0.5 5.40953 0.5Z" fill="#E9E9E9"/>
</svg>
