<svg width="26" height="25" viewBox="0 0 26 25" fill="none" xmlns="http://www.w3.org/2000/svg">
<path fill-rule="evenodd" clip-rule="evenodd" d="M12.9992 23.0067C13.824 23.9965 14.6487 24.9862 16.2982 24.9862C20.0952 24.9862 21.192 19.936 21.1935 16.1336C21.1935 14.4843 22.1832 13.6596 23.173 12.8349C24.1629 12.0102 25.1527 11.1855 25.1527 9.53609C25.1527 5.73791 20.0952 4.63972 16.2995 4.63972C14.6502 4.63972 13.8254 3.64996 13.0007 2.66019C12.1759 1.67043 11.3512 0.680664 9.70171 0.680664C5.90331 0.680664 4.80506 5.73791 4.80506 9.53329C4.80506 11.1827 3.81559 12.0074 2.82611 12.832C1.83664 13.6568 0.847168 14.4815 0.847168 16.1309C0.847168 19.929 5.90331 21.0272 9.70031 21.0272C11.3498 21.0272 12.1745 22.0169 12.9992 23.0067ZM12.9999 17.33C15.4834 17.33 17.4965 15.3169 17.4965 12.8334C17.4965 10.3501 15.4834 8.33691 12.9999 8.33691C10.5166 8.33691 8.50342 10.3501 8.50342 12.8334C8.50342 15.3169 10.5166 17.33 12.9999 17.33Z" fill="#E9E9E9"/>
</svg>
