<svg width="31" height="42" viewBox="0 0 31 42" fill="none" xmlns="http://www.w3.org/2000/svg">
<path fill-rule="evenodd" clip-rule="evenodd" d="M0 3.78128C0 1.52928 1.71448 0.104217 3.82967 0.598389L26.837 5.97357C28.952 6.46772 30.6667 8.07559 30.6667 9.56875V32.2648C30.6667 33.7562 28.9522 35.3658 26.837 35.86L3.82967 41.2351C1.7146 41.7293 0 40.3069 0 38.0522V3.78128ZM6.51667 12.1075C6.51667 10.2891 8.01023 9.02979 9.84899 9.29414L19.8492 10.7319C21.6896 10.9965 23.1815 12.383 23.1815 13.8296C23.1815 15.2757 21.688 16.3541 19.8492 16.2384L9.84899 15.6095C8.00861 15.4937 6.51667 13.9262 6.51667 12.1075ZM6.33931 20.9168C6.33931 19.0346 7.88531 17.5713 9.78861 17.6483L20.1399 18.0668C22.045 18.1439 23.5893 19.4195 23.5893 20.9168C23.5893 22.4137 22.0433 23.6897 20.1399 23.7667L9.78861 24.1852C7.88363 24.2623 6.33931 22.7994 6.33931 20.9168ZM10.35 33.2058C12.4671 32.8824 14.1833 31.0791 14.1833 29.1781C14.1833 27.277 12.4671 25.8438 10.35 25.977C8.23291 26.1102 6.51667 27.9134 6.51667 30.0047C6.51667 32.096 8.23291 33.5292 10.35 33.2058Z" fill="url(#paint0_linear_2_1963)"/>
<defs>
<linearGradient id="paint0_linear_2_1963" x1="-27.086" y1="-22.1032" x2="-28.0659" y2="92.3279" gradientUnits="userSpaceOnUse">
<stop stop-color="#1400FF"/>
<stop offset="1" stop-color="#FC199B"/>
</linearGradient>
</defs>
</svg>
