<svg width="135" height="200" viewBox="0 0 135 200" fill="none" xmlns="http://www.w3.org/2000/svg">
<g filter="url(#filter0_di_2_2577)">
<rect x="22.6667" y="0.166748" width="90.2955" height="90.2955" rx="12.8994" fill="#F8F8F8" fill-opacity="0.01" shape-rendering="crispEdges"/>
<rect x="22.6667" y="0.166748" width="90.2955" height="90.2955" rx="12.8994" fill="#121212" fill-opacity="0.3" shape-rendering="crispEdges"/>
<rect x="23.473" y="0.972958" width="88.6831" height="88.6831" rx="12.0932" stroke="url(#paint0_linear_2_2577)" stroke-opacity="0.25" stroke-width="1.61242" shape-rendering="crispEdges"/>
<path d="M43.5608 45.3143C43.5608 33.8811 43.5608 28.1645 47.1126 24.6126C50.6645 21.0608 56.3811 21.0608 67.8143 21.0608C79.2475 21.0608 84.9641 21.0608 88.5159 24.6126C92.0678 28.1645 92.0678 33.8811 92.0678 45.3143C92.0678 56.7475 92.0678 62.4641 88.5159 66.0159C84.9641 69.5678 79.2475 69.5678 67.8143 69.5678C56.3811 69.5678 50.6645 69.5678 47.1126 66.0159C43.5608 62.4641 43.5608 56.7475 43.5608 45.3143Z" stroke="#E9E9E9" stroke-width="3.8295"/>
<path d="M43.5608 37.6554H92.0678" stroke="#E9E9E9" stroke-width="3.8295" stroke-linejoin="round"/>
<path d="M55.0488 29.9963H55.0718" stroke="#E9E9E9" stroke-width="5.106" stroke-linecap="round" stroke-linejoin="round"/>
<path d="M65.2609 29.9963H65.2838" stroke="#E9E9E9" stroke-width="5.106" stroke-linecap="round" stroke-linejoin="round"/>
<path d="M57.6024 47.8673L60.7337 50.5663C62.0502 51.701 62.7084 52.2683 62.7084 52.9733C62.7084 53.6783 62.0502 54.2456 60.7337 55.3803L57.6024 58.0793" stroke="#E9E9E9" stroke-width="3.8295" stroke-linecap="round" stroke-linejoin="round"/>
<path d="M67.8143 58.0793H78.0263" stroke="#E9E9E9" stroke-width="3.8295" stroke-linecap="round" stroke-linejoin="round"/>
</g>
<defs>
<filter id="filter0_di_2_2577" x="-10.1863" y="-32.6863" width="156.002" height="232.659" filterUnits="userSpaceOnUse" color-interpolation-filters="sRGB">
<feFlood flood-opacity="0" result="BackgroundImageFix"/>
<feColorMatrix in="SourceAlpha" type="matrix" values="0 0 0 0 0 0 0 0 0 0 0 0 0 0 0 0 0 0 127 0" result="hardAlpha"/>
<feMorphology radius="43.8041" operator="erode" in="SourceAlpha" result="effect1_dropShadow_2_2577"/>
<feOffset dy="87.6082"/>
<feGaussianBlur stdDeviation="32.8531"/>
<feComposite in2="hardAlpha" operator="out"/>
<feColorMatrix type="matrix" values="0 0 0 0 0 0 0 0 0 0 0 0 0 0 0 0 0 0 0.4 0"/>
<feBlend mode="multiply" in2="BackgroundImageFix" result="effect1_dropShadow_2_2577"/>
<feBlend mode="normal" in="SourceGraphic" in2="effect1_dropShadow_2_2577" result="shape"/>
<feColorMatrix in="SourceAlpha" type="matrix" values="0 0 0 0 0 0 0 0 0 0 0 0 0 0 0 0 0 0 127 0" result="hardAlpha"/>
<feOffset/>
<feGaussianBlur stdDeviation="10.951"/>
<feComposite in2="hardAlpha" operator="arithmetic" k2="-1" k3="1"/>
<feColorMatrix type="matrix" values="0 0 0 0 0 0 0 0 0 1 0 0 0 0 0.872727 0 0 0 1 0"/>
<feBlend mode="normal" in2="shape" result="effect2_innerShadow_2_2577"/>
</filter>
<linearGradient id="paint0_linear_2_2577" x1="67.8145" y1="0.166747" x2="107.095" y2="99.3223" gradientUnits="userSpaceOnUse">
<stop stop-color="white" stop-opacity="0.4"/>
<stop offset="0.4" stop-color="white" stop-opacity="0.01"/>
<stop offset="0.6" stop-color="white" stop-opacity="0.01"/>
<stop offset="1" stop-color="white" stop-opacity="0.1"/>
</linearGradient>
</defs>
</svg>
