<svg width="92" height="91" viewBox="0 0 92 91" fill="none" xmlns="http://www.w3.org/2000/svg">
<g filter="url(#filter0_i_2_2579)">
<rect x="0.86145" y="0.16687" width="90.2955" height="90.2955" rx="12.8994" fill="#F8F8F8" fill-opacity="0.01"/>
<rect x="0.86145" y="0.16687" width="90.2955" height="90.2955" rx="12.8994" fill="#121212" fill-opacity="0.3"/>
<rect x="1.66766" y="0.97308" width="88.6831" height="88.6831" rx="12.0932" stroke="url(#paint0_linear_2_2579)" stroke-opacity="0.25" stroke-width="1.61242"/>
<path d="M38.308 19.7844C31.1427 19.9477 26.9576 20.6298 24.098 23.4794C21.5954 25.9734 20.7588 29.4793 20.4791 35.1024M53.7102 19.7844C60.8755 19.9477 65.0607 20.6298 67.9202 23.4794C70.4229 25.9734 71.2595 29.4793 71.5391 35.1024M53.7102 70.8444C60.8755 70.6811 65.0607 69.9991 67.9202 67.1495C70.4229 64.6555 71.2595 61.1496 71.5391 55.5264M38.308 70.8444C31.1427 70.6811 26.9576 69.9991 24.098 67.1495C21.5954 64.6555 20.7588 61.1496 20.4791 55.5264" stroke="#E9E9E9" stroke-width="3.8295" stroke-linecap="round" stroke-linejoin="round"/>
<path d="M34.5206 58.0794C40.4735 51.8446 51.4808 51.551 57.4976 58.0794M52.3791 38.9319C52.3791 42.4569 49.5175 45.3144 45.9875 45.3144C42.4575 45.3144 39.5959 42.4569 39.5959 38.9319C39.5959 35.407 42.4575 32.5494 45.9875 32.5494C49.5175 32.5494 52.3791 35.407 52.3791 38.9319Z" stroke="#E9E9E9" stroke-width="3.8295" stroke-linecap="round"/>
</g>
<defs>
<filter id="filter0_i_2_2579" x="0.86145" y="0.16687" width="90.2955" height="90.2955" filterUnits="userSpaceOnUse" color-interpolation-filters="sRGB">
<feFlood flood-opacity="0" result="BackgroundImageFix"/>
<feBlend mode="normal" in="SourceGraphic" in2="BackgroundImageFix" result="shape"/>
<feColorMatrix in="SourceAlpha" type="matrix" values="0 0 0 0 0 0 0 0 0 0 0 0 0 0 0 0 0 0 127 0" result="hardAlpha"/>
<feOffset/>
<feGaussianBlur stdDeviation="10.951"/>
<feComposite in2="hardAlpha" operator="arithmetic" k2="-1" k3="1"/>
<feColorMatrix type="matrix" values="0 0 0 0 0 0 0 0 0 1 0 0 0 0 0.872727 0 0 0 1 0"/>
<feBlend mode="normal" in2="shape" result="effect1_innerShadow_2_2579"/>
</filter>
<linearGradient id="paint0_linear_2_2579" x1="46.0092" y1="0.166869" x2="85.2896" y2="99.3224" gradientUnits="userSpaceOnUse">
<stop stop-color="white" stop-opacity="0.4"/>
<stop offset="0.4" stop-color="white" stop-opacity="0.01"/>
<stop offset="0.6" stop-color="white" stop-opacity="0.01"/>
<stop offset="1" stop-color="white" stop-opacity="0.1"/>
</linearGradient>
</defs>
</svg>
