<svg width="23" height="26" viewBox="0 0 23 26" fill="none" xmlns="http://www.w3.org/2000/svg">
<path fill-rule="evenodd" clip-rule="evenodd" d="M0.244385 2.65561C0.244385 2.0191 0.497241 1.40865 0.947329 0.958559C1.39742 0.508472 2.00787 0.255615 2.64438 0.255615H13.6508C14.2871 0.256175 14.8971 0.509399 15.3468 0.959615L21.942 7.55161C22.165 7.77477 22.3418 8.03972 22.4624 8.33128C22.5829 8.62285 22.6447 8.93532 22.6444 9.25081V23.4556C22.6444 24.0921 22.3915 24.7026 21.9414 25.1527C21.4914 25.6028 20.8809 25.8556 20.2444 25.8556H2.64438C2.00787 25.8556 1.39742 25.6028 0.947329 25.1527C0.497241 24.7026 0.244385 24.0921 0.244385 23.4556V2.65561ZM17.6156 11.7612C17.8027 11.5036 17.8799 11.1823 17.8301 10.8678C17.7803 10.5533 17.6076 10.2716 17.35 10.0844C17.0924 9.89728 16.771 9.82013 16.4566 9.86994C16.1421 9.91975 15.8603 10.0924 15.6732 10.35L10.1004 18.014L7.09239 15.006C6.86596 14.7875 6.56278 14.6667 6.24814 14.6696C5.93351 14.6725 5.63259 14.7988 5.4102 15.0214C5.18782 15.244 5.06176 15.545 5.05917 15.8597C5.05659 16.1743 5.17769 16.4774 5.39638 16.7036L9.39639 20.7036C9.51899 20.8263 9.66672 20.9209 9.82942 20.981C9.99211 21.0411 10.1659 21.0652 10.3388 21.0517C10.5117 21.0381 10.6796 20.9873 10.831 20.9026C10.9824 20.8179 11.1136 20.7015 11.2156 20.5612L17.6156 11.7612Z" fill="white"/>
</svg>
