<svg width="24" height="21" viewBox="0 0 24 21" fill="none" xmlns="http://www.w3.org/2000/svg">
<path d="M22.4025 17.4031C23.2538 17.4031 23.9443 18.0927 23.9445 18.9441C23.9445 19.7955 23.2539 20.4861 22.4025 20.4861H12.1251C11.2737 20.4861 10.5831 19.7955 10.5831 18.9441C10.5832 18.0927 11.2738 17.4031 12.1251 17.4031H22.4025ZM22.4025 9.18042C23.2539 9.18042 23.9445 9.87097 23.9445 10.7224C23.9443 11.5737 23.2538 12.2634 22.4025 12.2634H1.8468C0.995556 12.2633 0.305939 11.5736 0.305786 10.7224C0.305786 9.87104 0.995461 9.18054 1.8468 9.18042H22.4025ZM12.1251 0.957764C12.9765 0.957881 13.6661 1.64839 13.6661 2.49976C13.6661 3.35112 12.9765 4.04163 12.1251 4.04175H1.8468C0.995513 4.04157 0.305786 3.35109 0.305786 2.49976C0.305786 1.64843 0.995512 0.95794 1.8468 0.957764H12.1251Z" fill="white"/>
</svg>
