<svg width="70" height="71" viewBox="0 0 70 71" fill="none" xmlns="http://www.w3.org/2000/svg">
<path fill-rule="evenodd" clip-rule="evenodd" d="M25.0002 10.1667C25.5434 10.1668 26.0718 10.3438 26.5054 10.671C26.939 10.9982 27.2543 11.4577 27.4035 11.98L30.1135 21.4667C30.697 23.5097 31.7916 25.3703 33.2941 26.8728C34.7965 28.3752 36.6571 29.4698 38.7001 30.0533L48.1868 32.7633C48.7088 32.9129 49.1679 33.2283 49.4947 33.6619C49.8216 34.0955 49.9984 34.6237 49.9984 35.1667C49.9984 35.7096 49.8216 36.2379 49.4947 36.6715C49.1679 37.1051 48.7088 37.4205 48.1868 37.57L38.7001 40.28C36.6571 40.8635 34.7965 41.9582 33.2941 43.4606C31.7916 44.963 30.697 46.8236 30.1135 48.8667L27.4035 58.3533C27.254 58.8753 26.9385 59.3344 26.5049 59.6613C26.0713 59.9881 25.5431 60.1649 25.0002 60.1649C24.4572 60.1649 23.929 59.9881 23.4954 59.6613C23.0618 59.3344 22.7463 58.8753 22.5968 58.3533L19.8868 48.8667C19.3033 46.8236 18.2087 44.963 16.7062 43.4606C15.2038 41.9582 13.3432 40.8635 11.3002 40.28L1.81348 37.57C1.2915 37.4205 0.83239 37.1051 0.50556 36.6715C0.178731 36.2379 0.00195313 35.7096 0.00195312 35.1667C0.00195312 34.6237 0.178731 34.0955 0.50556 33.6619C0.83239 33.2283 1.2915 32.9129 1.81348 32.7633L11.3002 30.0533C13.3432 29.4698 15.2038 28.3752 16.7062 26.8728C18.2087 25.3703 19.3033 23.5097 19.8868 21.4667L22.5968 11.98C22.746 11.4577 23.0613 10.9982 23.4949 10.671C23.9285 10.3438 24.4569 10.1668 25.0002 10.1667ZM55.0002 0.166666C55.5579 0.166356 56.0997 0.352546 56.5394 0.69562C56.9791 1.0387 57.2915 1.51895 57.4268 2.06L58.2868 5.51333C59.0735 8.64667 61.5202 11.0933 64.6535 11.88L68.1068 12.74C68.6489 12.8743 69.1304 13.1862 69.4746 13.626C69.8188 14.0658 70.0058 14.6082 70.0058 15.1667C70.0058 15.7251 69.8188 16.2675 69.4746 16.7073C69.1304 17.1472 68.6489 17.4591 68.1068 17.5933L64.6535 18.4533C61.5202 19.24 59.0735 21.6867 58.2868 24.82L57.4268 28.2733C57.2926 28.8154 56.9806 29.2969 56.5408 29.6411C56.101 29.9853 55.5586 30.1723 55.0002 30.1723C54.4417 30.1723 53.8993 29.9853 53.4595 29.6411C53.0197 29.2969 52.7078 28.8154 52.5735 28.2733L51.7135 24.82C51.3289 23.2814 50.5333 21.8763 49.4119 20.7549C48.2905 19.6335 46.8854 18.838 45.3468 18.4533L41.8935 17.5933C41.3514 17.4591 40.8699 17.1472 40.5257 16.7073C40.1815 16.2675 39.9946 15.7251 39.9946 15.1667C39.9946 14.6082 40.1815 14.0658 40.5257 13.626C40.8699 13.1862 41.3514 12.8743 41.8935 12.74L45.3468 11.88C46.8854 11.4954 48.2905 10.6998 49.4119 9.57842C50.5333 8.45701 51.3289 7.0519 51.7135 5.51333L52.5735 2.06C52.7088 1.51895 53.0212 1.0387 53.4609 0.69562C53.9006 0.352546 54.4424 0.166356 55.0002 0.166666ZM50.0002 45.1667C50.5252 45.1664 51.037 45.3314 51.463 45.6383C51.889 45.9452 52.2076 46.3785 52.3735 46.8767L53.6868 50.82C54.1868 52.31 55.3535 53.4833 56.8468 53.98L60.7902 55.2967C61.2867 55.4634 61.7184 55.7818 62.0242 56.2071C62.33 56.6323 62.4945 57.1429 62.4945 57.6667C62.4945 58.1905 62.33 58.701 62.0242 59.1263C61.7184 59.5515 61.2867 59.87 60.7902 60.0367L56.8468 61.3533C55.3568 61.8533 54.1835 63.02 53.6868 64.5133L52.3702 68.4567C52.2034 68.9532 51.885 69.3849 51.4597 69.6907C51.0345 69.9965 50.5239 70.161 50.0002 70.161C49.4764 70.161 48.9658 69.9965 48.5406 69.6907C48.1153 69.3849 47.7969 68.9532 47.6301 68.4567L46.3135 64.5133C46.068 63.7776 45.6546 63.1091 45.1062 62.5606C44.5577 62.0122 43.8892 61.5989 43.1535 61.3533L39.2102 60.0367C38.7136 59.87 38.282 59.5515 37.9762 59.1263C37.6703 58.701 37.5058 58.1905 37.5058 57.6667C37.5058 57.1429 37.6703 56.6323 37.9762 56.2071C38.282 55.7818 38.7136 55.4634 39.2102 55.2967L43.1535 53.98C44.6435 53.48 45.8168 52.3133 46.3135 50.82L47.6301 46.8767C47.7959 46.3791 48.1139 45.9462 48.5393 45.6393C48.9646 45.3324 49.4757 45.1671 50.0002 45.1667Z" fill="#27B4A3"/>
</svg>
