<svg width="16" height="17" viewBox="0 0 16 17" fill="none" xmlns="http://www.w3.org/2000/svg">
<path fill-rule="evenodd" clip-rule="evenodd" d="M8.00024 0.666748C8.72164 0.666748 9.361 1.15 9.58392 1.86376L10.7055 5.45481H14.335C15.0564 5.45481 15.6957 5.93807 15.9186 6.65183C16.1416 7.36559 15.8973 8.14752 15.3137 8.58864L12.3774 10.808L13.499 14.3991C13.7219 15.1128 13.4777 15.8948 12.8941 16.3359C12.3105 16.777 11.5202 16.777 10.9365 16.3359L8.00024 14.1165L5.06395 16.3359C4.48032 16.777 3.69004 16.777 3.10641 16.3359C2.52279 15.8948 2.27858 15.1128 2.5015 14.3991L3.62307 10.808L0.686768 8.58864C0.103145 8.14752 -0.141067 7.36559 0.0818573 6.65183C0.304782 5.93807 0.944136 5.45481 1.66553 5.45481H5.295L6.41657 1.86376C6.63949 1.15 7.27885 0.666748 8.00024 0.666748Z" fill="url(#paint0_linear_2_2572)"/>
<defs>
<linearGradient id="paint0_linear_2_2572" x1="15.5736" y1="0.0910171" x2="0.877209" y2="4.34181" gradientUnits="userSpaceOnUse">
<stop stop-color="#087137"/>
<stop offset="0.455" stop-color="#22C1AD"/>
<stop offset="1" stop-color="white"/>
</linearGradient>
</defs>
</svg>
